%FSLAX25Y25*%
%MOIN*%
G70*
G01*
G75*
G04 Layer_Color=16711935*
%ADD10R,0.04134X0.05512*%
%ADD11O,0.02362X0.08661*%
%ADD12R,0.05315X0.06102*%
%ADD13O,0.00984X0.03740*%
%ADD14O,0.03740X0.00984*%
%ADD15R,0.20866X0.20866*%
%ADD16C,0.00787*%
%ADD17C,0.01181*%
%ADD18C,0.01575*%
%ADD19R,0.07874X0.07874*%
%ADD20C,0.07874*%
%ADD21R,0.07874X0.07874*%
%ADD22C,0.03937*%
%ADD23R,0.06102X0.05315*%
%ADD24R,0.09055X0.12598*%
%ADD25R,0.09055X0.03937*%
%ADD26C,0.03937*%
%ADD27C,0.00984*%
%ADD28C,0.01000*%
D12*
X114567Y141732D02*
D03*
X106693D02*
D03*
X140945Y103543D02*
D03*
X133071D02*
D03*
D19*
X180709Y124409D02*
D03*
D20*
Y134409D02*
D03*
X224882Y125984D02*
D03*
X214882D02*
D03*
X204882D02*
D03*
X114331Y104331D02*
D03*
X124331D02*
D03*
D21*
X194882Y125984D02*
D03*
X104331Y104331D02*
D03*
D22*
X101575Y115748D02*
D03*
X145276Y144685D02*
D03*
X144488Y108268D02*
D03*
X133465Y131496D02*
D03*
X120866Y115354D02*
D03*
D23*
X160236Y129921D02*
D03*
Y122047D02*
D03*
X151575D02*
D03*
Y129921D02*
D03*
D24*
X115945Y125984D02*
D03*
D25*
X139173Y116929D02*
D03*
Y125984D02*
D03*
Y135039D02*
D03*
M02*
