%FSLAX25Y25*%
%MOIN*%
G70*
G01*
G75*
G04 Layer_Color=32896*
%ADD10R,0.04134X0.05512*%
%ADD11O,0.02362X0.08661*%
%ADD12R,0.05315X0.06102*%
%ADD13O,0.00984X0.03740*%
%ADD14O,0.03740X0.00984*%
%ADD15R,0.20866X0.20866*%
%ADD16C,0.00787*%
%ADD17C,0.01181*%
%ADD18C,0.01575*%
%ADD19R,0.07874X0.07874*%
%ADD20C,0.07874*%
%ADD21R,0.07874X0.07874*%
%ADD22C,0.03937*%
%ADD23R,0.06102X0.05315*%
%ADD24R,0.09055X0.12598*%
%ADD25R,0.09055X0.03937*%
%ADD26C,0.03937*%
%ADD27C,0.00984*%
%ADD28C,0.01000*%
D16*
X157579Y125787D02*
Y126181D01*
X162894Y125787D02*
Y126181D01*
X154232Y125787D02*
Y126181D01*
X148917Y125787D02*
Y126181D01*
X110433Y144390D02*
X110827D01*
X110433Y139075D02*
X110827D01*
X121653Y113583D02*
X133465D01*
X121653Y138386D02*
X133465D01*
X121653Y113583D02*
Y138386D01*
X133465Y113583D02*
Y138386D01*
X136811Y106201D02*
X137205D01*
X136811Y100886D02*
X137205D01*
X225198Y118896D02*
X226772D01*
X227559Y118109D01*
Y114960D01*
X226772Y114173D01*
X225198D01*
X224411Y114960D01*
Y118109D01*
X225198Y118896D01*
X222836Y117322D02*
Y114960D01*
X222049Y114173D01*
X219688D01*
Y113386D01*
X220475Y112599D01*
X221262D01*
X219688Y114173D02*
Y117322D01*
X218113Y114173D02*
X215752D01*
X214965Y114960D01*
X215752Y115747D01*
X217326D01*
X218113Y116535D01*
X217326Y117322D01*
X214965D01*
X212603Y118109D02*
Y117322D01*
X213390D01*
X211816D01*
X212603D01*
Y114960D01*
X211816Y114173D01*
X207093D02*
X208667D01*
X209455Y114960D01*
Y116535D01*
X208667Y117322D01*
X207093D01*
X206306Y116535D01*
Y115747D01*
X209455D01*
X204732Y114173D02*
X203157D01*
X203945D01*
Y117322D01*
X204732D01*
X200796Y114173D02*
Y117322D01*
X198435D01*
X197648Y116535D01*
Y114173D01*
X191350Y116535D02*
X188202D01*
X178756Y114173D02*
X181904D01*
X178756Y117322D01*
Y118109D01*
X179543Y118896D01*
X181117D01*
X181904Y118109D01*
X177182D02*
X176394Y118896D01*
X174820D01*
X174033Y118109D01*
Y114960D01*
X174820Y114173D01*
X176394D01*
X177182Y114960D01*
Y118109D01*
X172459Y114173D02*
X170885D01*
X171672D01*
Y118896D01*
X172459Y118109D01*
X168523D02*
X167736Y118896D01*
X166162D01*
X165375Y118109D01*
Y117322D01*
X166162Y116535D01*
X166949D01*
X166162D01*
X165375Y115747D01*
Y114960D01*
X166162Y114173D01*
X167736D01*
X168523Y114960D01*
D27*
X139665Y139173D02*
G03*
X139665Y139173I-492J0D01*
G01*
M02*
